# This file uses centimeters as units for non-parametric coordinates.

mtllib groundFix.mtl
g default
v 0.000000 100.000000 100.000000
v 0.000000 100.000000 0.000000
v 100.000000 100.000000 100.000000
v 100.000000 100.000000 0.000000
v 100.000000 0.000000 100.000000
v 100.000000 0.000000 0.000000
v 0.000000 0.000000 100.000000
v 0.000000 0.000000 0.000000
vt 0.601170 0.399613
vt 0.601170 0.687194
vt 0.313589 0.687194
vt 0.313589 0.399613
vt 0.889937 0.399845
vt 0.890083 0.687426
vt 0.602502 0.687572
vt 0.602356 0.399991
vt 0.639435 0.349437
vt 0.639435 0.061855
vt 0.927016 0.061855
vt 0.927016 0.349437
vt 0.312881 0.398428
vt 0.312735 0.686010
vt 0.025154 0.685864
vt 0.025300 0.398282
vt 0.601250 0.688389
vt 0.601625 0.975970
vt 0.314044 0.976344
vt 0.313669 0.688763
vt 0.600780 0.110079
vt 0.600780 0.397660
vt 0.313199 0.397660
vt 0.313199 0.110079
vn 0.000000 1.000000 0.000000
vn 0.000000 1.000000 0.000000
vn 0.000000 1.000000 0.000000
vn 0.000000 1.000000 0.000000
vn 1.000000 0.000000 0.000000
vn 1.000000 0.000000 0.000000
vn 1.000000 0.000000 0.000000
vn 1.000000 0.000000 0.000000
vn 0.000000 -1.000000 0.000000
vn 0.000000 -1.000000 0.000000
vn 0.000000 -1.000000 0.000000
vn 0.000000 -1.000000 0.000000
vn -1.000000 0.000000 0.000000
vn -1.000000 0.000000 0.000000
vn -1.000000 0.000000 0.000000
vn -1.000000 0.000000 0.000000
vn 0.000000 0.000000 -1.000000
vn 0.000000 0.000000 -1.000000
vn 0.000000 0.000000 -1.000000
vn 0.000000 0.000000 -1.000000
vn 0.000000 0.000000 1.000000
vn 0.000000 0.000000 1.000000
vn 0.000000 0.000000 1.000000
vn 0.000000 0.000000 1.000000
s off
g ground
usemtl groundSG
f 3/1/1 4/2/2 2/3/3 1/4/4
f 5/5/5 6/6/6 4/7/7 3/8/8
f 7/9/9 8/10/10 6/11/11 5/12/12
f 1/13/13 2/14/14 8/15/15 7/16/16
f 4/17/17 6/18/18 8/19/19 2/20/20
f 5/21/21 3/22/22 1/23/23 7/24/24
